# xmcd CD database file
#
# Track frame offsets:
#	150
#	97262
#	192072
#
# Disc length: 3767 seconds
#
# Revision: 0
# Processed by: cddbd v1.5.2PL0 Copyright (c) Steve Scherf et al.
# Submitted via: CD2WAV32(JP) R3.22
#
DISCID=210eb503
DTITLE=THEMARIJUANA - トリップ
DYEAR=2007
DGENRE=Acid Jazz
TTITLE0=０１
TTITLE1=０２
TTITLE2=０３
EXTD=
EXTT0=
EXTT1=
EXTT2=
PLAYORDER=
